<?xml version="1.0" encoding="utf-8"?>
<!-- Generator: Adobe Illustrator 25.4.1, SVG Export Plug-In . SVG Version: 6.00 Build 0)  -->
<svg version="1.1" id="Warstwa_1" xmlns="http://www.w3.org/2000/svg" xmlns:xlink="http://www.w3.org/1999/xlink" x="0px" y="0px"
	 viewBox="0 0 6585.4 4906.4" style="enable-background:new 0 0 6585.4 4906.4;" xml:space="preserve">
<style type="text/css">
	.st0{fill:#FFFFFF;}
	.st1{fill:url(#SVGID_1_);}
	.st2{opacity:0.5;fill:#961B1E;}
	.st3{opacity:0.89;fill:#961B1E;}
	.st4{fill:none;}
	.st5{fill:url(#SVGID_00000009556548362041214270000003341440447391284866_);}
	.st6{fill:url(#SVGID_00000021116828587450537090000001592435555361735848_);}
	.st7{fill:url(#SVGID_00000155850757163146756260000000077189853888197513_);}
	.st8{fill:url(#SVGID_00000081631112000302209360000004398711759312246160_);}
	.st9{opacity:0.85;fill:#2B3990;}
	.st10{fill:url(#SVGID_00000116214413133762045490000017970558564248695969_);}
	.st11{opacity:0.7;fill:#2B3990;}
	.st12{fill:#006838;}
	.st13{fill:url(#SVGID_00000050634659294007699800000005062008834336815022_);}
	.st14{opacity:0.7;fill:#FFFFFF;}
	.st15{fill:url(#SVGID_00000162331700015996170660000002261116299069320608_);}
	.st16{fill:#2B3990;}
</style>
<path class="st0" d="M-543.8-1681c-0.9,2.1-1.4,3.4-1.6,3.9L-543.8-1681z"/>
<polygon class="st0" points="-545.5,-1676.9 -545.5,-1676.9 -545.5,-1676.9 "/>
<path class="st0" d="M-545.5-1676.9c0,0,0-0.1,0.1-0.2L-545.5-1676.9L-545.5-1676.9z"/>
<g>
	<linearGradient id="SVGID_1_" gradientUnits="userSpaceOnUse" x1="1746.8035" y1="3579.6074" x2="3392.3486" y2="3579.6074">
		<stop  offset="0" style="stop-color:#D65033"/>
		<stop  offset="0.5054" style="stop-color:#E47B41"/>
		<stop  offset="0.6292" style="stop-color:#E79045"/>
		<stop  offset="0.7843" style="stop-color:#EAA74B"/>
		<stop  offset="0.9135" style="stop-color:#ECB54E"/>
		<stop  offset="1" style="stop-color:#EDBA4F"/>
	</linearGradient>
	<path class="st1" d="M3185.2,3280.9c0,0-4-11.8-5.6-15.6c-9.7-22.8-33.5-37.8-59.7-39.2h-455.3h-166.5h-309.7h-97.4
		c-64.9,120.1-120,228.3-163.9,317.4c-65.8,133.6-116.1,241.7-147.1,310.1l-9.7,6.6l-23.6,62.4l12.7,10.7h909h447.7h205.3
		c39.1,0,70.9-31.7,70.9-70.9c0,0,0.1-2.1,0-2.8C3366,3708.1,3185.2,3280.9,3185.2,3280.9z"/>
	<polyline class="st2" points="1765.5,3933.2 2536.1,3226 2244.5,3226 	"/>
	<path class="st3" d="M1944.6,3543.4c-18.3,37.2-35.3,72.3-51,105.2c-78.8,165.5-123.6,273.5-128.2,284.5l479-707.1l-144.3,0
		C2100.2,3226.1,1988.5,3454.4,1944.6,3543.4z"/>
	<path class="st4" d="M3932.6,1298.4c-7.4,5.3-15,10.6-22.6,16.1C3917.7,1309,3925.2,1303.6,3932.6,1298.4z"/>
	<path class="st4" d="M3751.2,1432.8c-5.9,4.6-11.8,9.2-17.6,13.9C3739.4,1442,3745.3,1437.4,3751.2,1432.8z"/>
	
		<linearGradient id="SVGID_00000032636496089358266820000010265496551377437344_" gradientUnits="userSpaceOnUse" x1="4418.77" y1="4213.0708" x2="3500.8369" y2="789.8573">
		<stop  offset="0" style="stop-color:#8DC85A"/>
		<stop  offset="0.3566" style="stop-color:#27AAE1"/>
		<stop  offset="0.5126" style="stop-color:#2192D0"/>
		<stop  offset="0.7123" style="stop-color:#1C77BD"/>
		<stop  offset="1" style="stop-color:#1C75BC"/>
	</linearGradient>
	<path style="fill:url(#SVGID_00000032636496089358266820000010265496551377437344_);" d="M3692.6,1479.9c-3.7,3-7.3,6.1-10.9,9.1
		C3685.2,1486,3688.9,1482.9,3692.6,1479.9z"/>
	
		<linearGradient id="SVGID_00000057108556684688988280000000356201436074667928_" gradientUnits="userSpaceOnUse" x1="4515.606" y1="4187.1045" x2="3597.6726" y2="763.8908">
		<stop  offset="0" style="stop-color:#8DC85A"/>
		<stop  offset="0.3566" style="stop-color:#27AAE1"/>
		<stop  offset="0.5126" style="stop-color:#2192D0"/>
		<stop  offset="0.7123" style="stop-color:#1C77BD"/>
		<stop  offset="1" style="stop-color:#1C75BC"/>
	</linearGradient>
	<path style="fill:url(#SVGID_00000057108556684688988280000000356201436074667928_);" d="M3770.1,1209.1l317.8-20.5
		c-125.3-222.1-294.8-369.8-524.2-369.8l-178.3,556.9c0,0,33.6,17.6,81.2,101.6l93.8-97.4
		C3560.3,1379.8,3767.3,1209.8,3770.1,1209.1z"/>
	
		<linearGradient id="SVGID_00000108991102000245746980000010336946610314605966_" gradientUnits="userSpaceOnUse" x1="4682.6797" y1="4142.147" x2="3764.7466" y2="718.9348">
		<stop  offset="0" style="stop-color:#8DC85A"/>
		<stop  offset="0.3566" style="stop-color:#27AAE1"/>
		<stop  offset="0.5126" style="stop-color:#2192D0"/>
		<stop  offset="0.7123" style="stop-color:#1C77BD"/>
		<stop  offset="1" style="stop-color:#1C75BC"/>
	</linearGradient>
	<path style="fill:url(#SVGID_00000108991102000245746980000010336946610314605966_);" d="M5247.5,3280.7l-5.6-15.6
		c-0.2-0.3-0.4-0.7-0.5-1c16.2,45.7,55.2,127.5,87.4,218.7c-32.2-91.1-71.2-173-87.4-218.7c-11.2-21.7-33.3-36.8-59.1-38.2h-491.9
		c-5.4,0-98.4,1.2-98.4,1.2h-151.5c0,0,28.1-1361-351.6-2036.8c-0.1-0.2-0.2-0.3-0.3-0.5c-0.3-0.4-0.5-0.9-0.7-1.3
		c-0.7,0.5-502.5,334.7-548.7,452.2c0,0-0.4-1.2-1.2-3.3c0.4,1.1,0.8,2.2,1.2,3.3c9.3,25.9,18.8,54.2,28.3,85.1
		c14.2,46.4,28.6,98.9,42.7,158v0c87.3,365.6,166.7,988.9,166.7,2049.2h828.4h85.1h488.1h205.3c37.7,0,68.4-29.4,70.7-66.5l0,0
		c0.1-1.5,0.1-2.9,0.1-4.4c0,0,0.1-2.1,0-2.8C5428.3,3708,5247.5,3280.7,5247.5,3280.7z M3681.6,1488.8c3.6-3,7.2-6.1,10.9-9.1
		C3688.8,1482.8,3685.2,1485.8,3681.6,1488.8z M3733.6,1446.5c5.8-4.6,11.7-9.2,17.6-13.9
		C3745.2,1437.3,3739.4,1441.9,3733.6,1446.5z M3855.9,1353.5c6.1-4.4,12.1-8.8,18.1-13.2C3868,1344.6,3862,1349,3855.9,1353.5z
		 M3910,1314.3c7.7-5.5,15.2-10.9,22.6-16.1C3925.2,1303.5,3917.6,1308.9,3910,1314.3z"/>
	
		<linearGradient id="SVGID_00000132078329763896217940000005593476777560336059_" gradientUnits="userSpaceOnUse" x1="4619.1191" y1="4159.3472" x2="3701.1858" y2="736.1338">
		<stop  offset="0" style="stop-color:#8DC85A"/>
		<stop  offset="0.3566" style="stop-color:#27AAE1"/>
		<stop  offset="0.5126" style="stop-color:#2192D0"/>
		<stop  offset="0.7123" style="stop-color:#1C77BD"/>
		<stop  offset="1" style="stop-color:#1C75BC"/>
	</linearGradient>
	<path style="fill:url(#SVGID_00000132078329763896217940000005593476777560336059_);" d="M3874,1340.4c-6,4.4-12,8.8-18.1,13.2
		C3862,1349.2,3868,1344.8,3874,1340.4z"/>
	<path class="st9" d="M3538,1637.5c-7.4-20.5-14.8-39.4-22-56.9C3526.7,1606.8,3535,1629.3,3538,1637.5z"/>
	<path class="st9" d="M3466.1,1477.7c1.2,1.7,2.5,3.6,3.7,5.6c-1.1-2-2.2-4-3.3-6L3466.1,1477.7z"/>
	<polygon class="st9" points="4087.9,1188.6 4087.9,1188.6 4087.9,1188.6 	"/>
	
		<linearGradient id="SVGID_00000150824413710592522160000001198952845487841443_" gradientUnits="userSpaceOnUse" x1="4540.751" y1="4180.3618" x2="3622.8176" y2="757.1482">
		<stop  offset="0" style="stop-color:#8DC85A"/>
		<stop  offset="0.3566" style="stop-color:#27AAE1"/>
		<stop  offset="0.5126" style="stop-color:#2192D0"/>
		<stop  offset="0.7123" style="stop-color:#1C77BD"/>
		<stop  offset="1" style="stop-color:#1C75BC"/>
	</linearGradient>
	<path style="fill:url(#SVGID_00000150824413710592522160000001198952845487841443_);" d="M4087.9,1188.6
		C4087.9,1188.6,4087.9,1188.6,4087.9,1188.6l-317.8,20.5c-2.8,0.7-209.8,170.8-209.8,170.8l-93.8,97.4c1.1,2,2.2,3.9,3.3,6
		c14.8,23.2,32.4,63.4,46.2,97.4c7.2,17.5,14.6,36.4,22,56.9c0.8,2.1,1.2,3.3,1.2,3.3C3585.4,1523.3,4087.2,1189,4087.9,1188.6z"/>
	<path class="st9" d="M4090.5,1193.2l-2.6-4.7l-317.8,20.5c-2.8,0.7-209.8,170.8-209.8,170.8l-93.8,97.4c1.1,2,2.2,3.9,3.3,6
		c14.8,23.2,32.4,63.4,46.2,97.4c7.2,17.5,14.6,36.4,22,56.9c0.8,2.1,1.2,3.3,1.2,3.3C3585.4,1523.3,4090.5,1193.2,4090.5,1193.2z"
		/>
	<path class="st11" d="M4090.5,1193.2c0,0-505.1,330-551.3,447.6c0,0,0,0,0,0c9.3,25.9,18.8,54.2,28.3,85.1
		c14.2,46.4,28.6,98.9,42.7,158c0,0,0,0,0,0C3635.1,1768.6,4090.5,1193.2,4090.5,1193.2z"/>
	<path class="st12" d="M4097.9,1181.2"/>
	
		<linearGradient id="SVGID_00000059284954369772925310000011613046170588001442_" gradientUnits="userSpaceOnUse" x1="3058.7236" y1="3226.033" x2="3058.7236" y2="3226.033">
		<stop  offset="0" style="stop-color:#BEC0C2;stop-opacity:0"/>
		<stop  offset="6.727027e-02" style="stop-color:#C2C4C6;stop-opacity:9.956001e-02"/>
		<stop  offset="0.2027" style="stop-color:#C5C7C9;stop-opacity:0.3"/>
		<stop  offset="0.2226" style="stop-color:#C0C2C4;stop-opacity:0.3478"/>
		<stop  offset="0.3027" style="stop-color:#B2B4B6;stop-opacity:0.5399"/>
		<stop  offset="0.3896" style="stop-color:#AAACAE;stop-opacity:0.7482"/>
		<stop  offset="0.4946" style="stop-color:#A7A9AC"/>
		<stop  offset="0.7838" style="stop-color:#A7A9AC;stop-opacity:0.3"/>
		<stop  offset="1" style="stop-color:#A7A9AC;stop-opacity:0"/>
	</linearGradient>
	<path style="fill:url(#SVGID_00000059284954369772925310000011613046170588001442_);" d="M3058.7,3226"/>
	<path class="st4" d="M4070.9,1164.2c-18.9-32-54.9-88-106.9-148.5c-74-86-196.5-199.1-360.2-249.6c-58.8-18.2-119-27.2-180.4-27.2
		c-122.9,0-250.7,36.3-381.9,108.6c-159.2,87.8-349.4,258.5-565.2,507.1c-185,213.2-384.1,479.1-575.7,769
		c-172.2,260.6-328.9,526.5-441.2,748.8c-112.6,222.8-170.1,381-161.9,445.4c17.1,134.4,142.1,293.9,244,404.1
		c101.1,109.3,199.9,192.9,217,207.1c9.7-23.1,73-172.5,179.1-387.9c106.2-215.6,278.3-543.3,494.8-880.3
		c243.4-378.8,492.4-691.9,739.9-930.5c147-141.8,295.1-258.5,440.3-347c158.6-96.7,317.6-162,472.5-194.2l-37.2-30.4L4070.9,1164.2
		z"/>
	<path class="st14" d="M4090.5,1193.2c0,0-2.3-4.1-2.6-4.7l-0.4,0.1l-2.5,0.6c-154.9,32.2-313.9,97.5-472.5,194.2
		c-47.9,29.2-96.2,61.6-144.6,96.8c0,0,350.6-238.1,621.4-286.8L4090.5,1193.2z"/>
	<polygon class="st0" points="3467.9,1480.2 3467.9,1480.2 3467.9,1480.2 	"/>
	
		<linearGradient id="SVGID_00000153706169009717869940000018206723897054069900_" gradientUnits="userSpaceOnUse" x1="1282.2621" y1="3468.6726" x2="3853.5542" y2="897.3803">
		<stop  offset="0" style="stop-color:#F15A4A"/>
		<stop  offset="3.684381e-02" style="stop-color:#F05050"/>
		<stop  offset="0.1231" style="stop-color:#EF385A"/>
		<stop  offset="0.1713" style="stop-color:#EE2B5C"/>
		<stop  offset="0.4052" style="stop-color:#BE5B8D"/>
		<stop  offset="0.547" style="stop-color:#A06AAD"/>
		<stop  offset="0.8524" style="stop-color:#5C4A9E"/>
	</linearGradient>
	<path style="fill:url(#SVGID_00000153706169009717869940000018206723897054069900_);" d="M3040.3,845.3
		C2356.8,1222.4,1260.8,3049.1,1295,3318.2c31.9,251.3,432.1,588.1,463,613.7l5.9-13.3l26.3-58.9l22.5-54
		c14.9-33,32.5-71.5,52.7-114.5l0-0.1l0,0c21.3-45.3,45.4-95.7,72.2-150c43.6-88.5,98.3-195.9,162.7-315.1l0,0c0,0,0,0,0,0
		c92.3-171.1,204.5-366.5,332.2-565.1c243.4-378.8,492.4-691.9,739.9-930.5c147-141.8,295.1-258.5,440.3-347
		c158.6-96.7,317.6-162,472.5-194.2l2.9-0.7C4064.4,1143.8,3700.9,480.8,3040.3,845.3z"/>
	<path class="st4" d="M2100.3,3226C2100.2,3226,2100.2,3226.1,2100.3,3226L2100.3,3226L2100.3,3226z"/>
	<polygon class="st3" points="2100.3,3226 2100.3,3226 2100.3,3226 	"/>
	<path class="st0" d="M4090.6,1193.1"/>
	<path class="st16" d="M4090.5,1193.2"/>
	<path class="st14" d="M1937.6,3541.2c-26.8,54.3-50.9,104.7-72.2,150l0,0l0,0.1c-20.2,43-37.8,81.5-52.7,114.5l-22.5,54l-32.2,72.2
		l1.6,1.3h6.1c4.6-11.1,48.7-119,127.5-284.5c15.7-32.9,32.1-66.7,50.4-103.8c43.9-89,156.7-318.6,156.8-318.8l0,0
		C2035.9,3345.2,1981.2,3452.7,1937.6,3541.2z"/>
</g>
</svg>
